<mxfile host="Electron" agent="Mozilla/5.0 (Windows NT 10.0; Win64; x64) AppleWebKit/537.36 (KHTML, like Gecko) draw.io/24.7.17 Chrome/128.0.6613.36 Electron/32.0.1 Safari/537.36" version="24.7.17">
  <diagram name="Page-1" id="b-rBPI10aY0FwaceuBIl">
    <mxGraphModel dx="1221" dy="823" grid="1" gridSize="10" guides="1" tooltips="1" connect="1" arrows="1" fold="1" page="1" pageScale="1" pageWidth="850" pageHeight="1100" math="0" shadow="0">
      <root>
        <mxCell id="0" />
        <mxCell id="1" parent="0" />
        <mxCell id="R6H1yCaC_U09KvBiGj2D-18" style="edgeStyle=orthogonalEdgeStyle;rounded=0;orthogonalLoop=1;jettySize=auto;html=1;exitX=0.5;exitY=1;exitDx=0;exitDy=0;entryX=0.5;entryY=0;entryDx=0;entryDy=0;" edge="1" parent="1" source="R6H1yCaC_U09KvBiGj2D-2" target="R6H1yCaC_U09KvBiGj2D-8">
          <mxGeometry relative="1" as="geometry" />
        </mxCell>
        <mxCell id="R6H1yCaC_U09KvBiGj2D-2" value="Begin" style="ellipse;whiteSpace=wrap;html=1;" vertex="1" parent="1">
          <mxGeometry x="410" y="60" width="120" height="80" as="geometry" />
        </mxCell>
        <mxCell id="R6H1yCaC_U09KvBiGj2D-6" value="Begin&lt;div&gt;&lt;span style=&quot;white-space: pre;&quot;&gt;&#x9;&lt;/span&gt;&lt;br&gt;&lt;/div&gt;&lt;div&gt;&lt;span style=&quot;white-space: pre;&quot;&gt;&#x9;&lt;/span&gt;Nhập điểm;&lt;br&gt;&lt;/div&gt;&lt;div&gt;&lt;span style=&quot;white-space: pre;&quot;&gt;&#x9;&lt;/span&gt;if( điểm &amp;gt;=75 ) cout &quot;loại A&quot;&lt;br&gt;&lt;/div&gt;&lt;div&gt;&lt;span style=&quot;white-space: pre;&quot;&gt;&#x9;&lt;/span&gt;else if ( điểm &amp;gt;=60) cout &quot;loại B&quot;&lt;br&gt;&lt;/div&gt;&lt;div&gt;&lt;span style=&quot;white-space: pre;&quot;&gt;&#x9;&lt;/span&gt;else if ( điểm &amp;gt;=45 cout &quot;loại C&quot;&lt;br&gt;&lt;/div&gt;&lt;div&gt;&lt;span style=&quot;white-space: pre;&quot;&gt;&#x9;&lt;/span&gt;else if ( điểm &amp;gt;=35) cout &quot;loại D&quot;&lt;br&gt;&lt;/div&gt;&lt;div&gt;&lt;span style=&quot;white-space: pre;&quot;&gt;&#x9;&lt;/span&gt;else cout &quot;loại F&quot;&lt;br&gt;&lt;/div&gt;&lt;div&gt;&lt;br&gt;&lt;/div&gt;&lt;div&gt;End&lt;/div&gt;" style="text;html=1;align=left;verticalAlign=middle;resizable=0;points=[];autosize=1;strokeColor=none;fillColor=none;" vertex="1" parent="1">
          <mxGeometry x="30" y="140" width="220" height="160" as="geometry" />
        </mxCell>
        <mxCell id="R6H1yCaC_U09KvBiGj2D-21" style="edgeStyle=orthogonalEdgeStyle;rounded=0;orthogonalLoop=1;jettySize=auto;html=1;exitX=0.5;exitY=1;exitDx=0;exitDy=0;entryX=0.5;entryY=0;entryDx=0;entryDy=0;" edge="1" parent="1" source="R6H1yCaC_U09KvBiGj2D-7" target="R6H1yCaC_U09KvBiGj2D-12">
          <mxGeometry relative="1" as="geometry" />
        </mxCell>
        <mxCell id="R6H1yCaC_U09KvBiGj2D-30" style="edgeStyle=orthogonalEdgeStyle;rounded=0;orthogonalLoop=1;jettySize=auto;html=1;exitX=1;exitY=1;exitDx=0;exitDy=0;entryX=0.5;entryY=0;entryDx=0;entryDy=0;" edge="1" parent="1" source="R6H1yCaC_U09KvBiGj2D-7" target="R6H1yCaC_U09KvBiGj2D-9">
          <mxGeometry relative="1" as="geometry" />
        </mxCell>
        <mxCell id="R6H1yCaC_U09KvBiGj2D-7" value="&lt;span style=&quot;text-align: left; text-wrap: nowrap;&quot;&gt;else if( điểm &amp;gt;=60 )&amp;nbsp;&lt;/span&gt;" style="rhombus;whiteSpace=wrap;html=1;" vertex="1" parent="1">
          <mxGeometry x="400" y="270" width="120" height="80" as="geometry" />
        </mxCell>
        <mxCell id="R6H1yCaC_U09KvBiGj2D-19" style="edgeStyle=orthogonalEdgeStyle;rounded=0;orthogonalLoop=1;jettySize=auto;html=1;exitX=0;exitY=0.5;exitDx=0;exitDy=0;entryX=0.5;entryY=0;entryDx=0;entryDy=0;" edge="1" parent="1" source="R6H1yCaC_U09KvBiGj2D-8" target="R6H1yCaC_U09KvBiGj2D-15">
          <mxGeometry relative="1" as="geometry">
            <Array as="points">
              <mxPoint x="410" y="170" />
              <mxPoint x="330" y="170" />
            </Array>
          </mxGeometry>
        </mxCell>
        <mxCell id="R6H1yCaC_U09KvBiGj2D-29" style="edgeStyle=orthogonalEdgeStyle;rounded=0;orthogonalLoop=1;jettySize=auto;html=1;exitX=1;exitY=0.5;exitDx=0;exitDy=0;entryX=1;entryY=0.5;entryDx=0;entryDy=0;" edge="1" parent="1" source="R6H1yCaC_U09KvBiGj2D-8" target="R6H1yCaC_U09KvBiGj2D-7">
          <mxGeometry relative="1" as="geometry" />
        </mxCell>
        <mxCell id="R6H1yCaC_U09KvBiGj2D-8" value="&lt;span style=&quot;text-align: left; text-wrap: nowrap;&quot;&gt;if( điểm &amp;gt;=75 )&amp;nbsp;&lt;/span&gt;" style="rhombus;whiteSpace=wrap;html=1;" vertex="1" parent="1">
          <mxGeometry x="410" y="170" width="120" height="80" as="geometry" />
        </mxCell>
        <mxCell id="R6H1yCaC_U09KvBiGj2D-31" style="edgeStyle=orthogonalEdgeStyle;rounded=0;orthogonalLoop=1;jettySize=auto;html=1;exitX=0.5;exitY=1;exitDx=0;exitDy=0;entryX=0.5;entryY=0;entryDx=0;entryDy=0;" edge="1" parent="1" source="R6H1yCaC_U09KvBiGj2D-9" target="R6H1yCaC_U09KvBiGj2D-14">
          <mxGeometry relative="1" as="geometry" />
        </mxCell>
        <mxCell id="R6H1yCaC_U09KvBiGj2D-33" style="edgeStyle=orthogonalEdgeStyle;rounded=0;orthogonalLoop=1;jettySize=auto;html=1;exitX=0;exitY=0.5;exitDx=0;exitDy=0;entryX=1;entryY=0.5;entryDx=0;entryDy=0;" edge="1" parent="1" source="R6H1yCaC_U09KvBiGj2D-9" target="R6H1yCaC_U09KvBiGj2D-10">
          <mxGeometry relative="1" as="geometry" />
        </mxCell>
        <mxCell id="R6H1yCaC_U09KvBiGj2D-9" value="&lt;span style=&quot;text-align: left; text-wrap: nowrap;&quot;&gt;else if( điểm &amp;gt;=45 )&amp;nbsp;&lt;/span&gt;" style="rhombus;whiteSpace=wrap;html=1;" vertex="1" parent="1">
          <mxGeometry x="565" y="370" width="120" height="80" as="geometry" />
        </mxCell>
        <mxCell id="R6H1yCaC_U09KvBiGj2D-34" style="edgeStyle=orthogonalEdgeStyle;rounded=0;orthogonalLoop=1;jettySize=auto;html=1;exitX=1;exitY=1;exitDx=0;exitDy=0;entryX=0;entryY=0.5;entryDx=0;entryDy=0;" edge="1" parent="1" source="R6H1yCaC_U09KvBiGj2D-10" target="R6H1yCaC_U09KvBiGj2D-16">
          <mxGeometry relative="1" as="geometry" />
        </mxCell>
        <mxCell id="R6H1yCaC_U09KvBiGj2D-10" value="&lt;span style=&quot;text-align: left; text-wrap: nowrap;&quot;&gt;else if( điểm &amp;gt;=35 )&amp;nbsp;&lt;/span&gt;" style="rhombus;whiteSpace=wrap;html=1;" vertex="1" parent="1">
          <mxGeometry x="390" y="490" width="120" height="80" as="geometry" />
        </mxCell>
        <mxCell id="R6H1yCaC_U09KvBiGj2D-52" style="edgeStyle=orthogonalEdgeStyle;rounded=0;orthogonalLoop=1;jettySize=auto;html=1;exitX=0;exitY=0.5;exitDx=0;exitDy=0;entryX=1;entryY=0.5;entryDx=0;entryDy=0;" edge="1" parent="1" source="R6H1yCaC_U09KvBiGj2D-11" target="R6H1yCaC_U09KvBiGj2D-45">
          <mxGeometry relative="1" as="geometry" />
        </mxCell>
        <mxCell id="R6H1yCaC_U09KvBiGj2D-11" value="Cout &quot;loại D&quot;" style="shape=parallelogram;perimeter=parallelogramPerimeter;whiteSpace=wrap;html=1;fixedSize=1;" vertex="1" parent="1">
          <mxGeometry x="390" y="610" width="120" height="60" as="geometry" />
        </mxCell>
        <mxCell id="R6H1yCaC_U09KvBiGj2D-50" style="edgeStyle=orthogonalEdgeStyle;rounded=0;orthogonalLoop=1;jettySize=auto;html=1;exitX=0;exitY=0.5;exitDx=0;exitDy=0;entryX=1;entryY=0.5;entryDx=0;entryDy=0;" edge="1" parent="1" source="R6H1yCaC_U09KvBiGj2D-12" target="R6H1yCaC_U09KvBiGj2D-46">
          <mxGeometry relative="1" as="geometry" />
        </mxCell>
        <mxCell id="R6H1yCaC_U09KvBiGj2D-12" value="Cout &quot;loại B&quot;" style="shape=parallelogram;perimeter=parallelogramPerimeter;whiteSpace=wrap;html=1;fixedSize=1;" vertex="1" parent="1">
          <mxGeometry x="400" y="390" width="120" height="60" as="geometry" />
        </mxCell>
        <mxCell id="R6H1yCaC_U09KvBiGj2D-13" value="Cout &quot;loại F&quot;" style="shape=parallelogram;perimeter=parallelogramPerimeter;whiteSpace=wrap;html=1;fixedSize=1;" vertex="1" parent="1">
          <mxGeometry x="575" y="720" width="120" height="60" as="geometry" />
        </mxCell>
        <mxCell id="R6H1yCaC_U09KvBiGj2D-49" style="edgeStyle=orthogonalEdgeStyle;rounded=0;orthogonalLoop=1;jettySize=auto;html=1;exitX=1;exitY=0.5;exitDx=0;exitDy=0;entryX=0;entryY=0.5;entryDx=0;entryDy=0;" edge="1" parent="1" source="R6H1yCaC_U09KvBiGj2D-14" target="R6H1yCaC_U09KvBiGj2D-48">
          <mxGeometry relative="1" as="geometry" />
        </mxCell>
        <mxCell id="R6H1yCaC_U09KvBiGj2D-14" value="Cout &quot;loại C&quot;" style="shape=parallelogram;perimeter=parallelogramPerimeter;whiteSpace=wrap;html=1;fixedSize=1;" vertex="1" parent="1">
          <mxGeometry x="575" y="490" width="120" height="60" as="geometry" />
        </mxCell>
        <mxCell id="R6H1yCaC_U09KvBiGj2D-15" value="Cout &quot;loại A&quot;" style="shape=parallelogram;perimeter=parallelogramPerimeter;whiteSpace=wrap;html=1;fixedSize=1;" vertex="1" parent="1">
          <mxGeometry x="270" y="190" width="120" height="60" as="geometry" />
        </mxCell>
        <mxCell id="R6H1yCaC_U09KvBiGj2D-27" style="edgeStyle=orthogonalEdgeStyle;rounded=0;orthogonalLoop=1;jettySize=auto;html=1;exitX=0.5;exitY=1;exitDx=0;exitDy=0;entryX=0.5;entryY=0;entryDx=0;entryDy=0;" edge="1" parent="1" source="R6H1yCaC_U09KvBiGj2D-16" target="R6H1yCaC_U09KvBiGj2D-13">
          <mxGeometry relative="1" as="geometry" />
        </mxCell>
        <mxCell id="R6H1yCaC_U09KvBiGj2D-16" value="else if" style="rhombus;whiteSpace=wrap;html=1;" vertex="1" parent="1">
          <mxGeometry x="560" y="580" width="130" height="80" as="geometry" />
        </mxCell>
        <mxCell id="R6H1yCaC_U09KvBiGj2D-17" value="end" style="ellipse;whiteSpace=wrap;html=1;" vertex="1" parent="1">
          <mxGeometry x="390" y="720" width="120" height="80" as="geometry" />
        </mxCell>
        <mxCell id="R6H1yCaC_U09KvBiGj2D-25" style="edgeStyle=orthogonalEdgeStyle;rounded=0;orthogonalLoop=1;jettySize=auto;html=1;exitX=0.5;exitY=1;exitDx=0;exitDy=0;entryX=0.597;entryY=0.056;entryDx=0;entryDy=0;entryPerimeter=0;" edge="1" parent="1" source="R6H1yCaC_U09KvBiGj2D-10" target="R6H1yCaC_U09KvBiGj2D-11">
          <mxGeometry relative="1" as="geometry" />
        </mxCell>
        <mxCell id="R6H1yCaC_U09KvBiGj2D-28" style="edgeStyle=orthogonalEdgeStyle;rounded=0;orthogonalLoop=1;jettySize=auto;html=1;exitX=0;exitY=0.5;exitDx=0;exitDy=0;entryX=1.014;entryY=0.342;entryDx=0;entryDy=0;entryPerimeter=0;" edge="1" parent="1" source="R6H1yCaC_U09KvBiGj2D-13" target="R6H1yCaC_U09KvBiGj2D-17">
          <mxGeometry relative="1" as="geometry" />
        </mxCell>
        <mxCell id="R6H1yCaC_U09KvBiGj2D-35" value="Đúng" style="text;html=1;align=center;verticalAlign=middle;resizable=0;points=[];autosize=1;strokeColor=none;fillColor=none;" vertex="1" parent="1">
          <mxGeometry x="335" y="148" width="50" height="30" as="geometry" />
        </mxCell>
        <mxCell id="R6H1yCaC_U09KvBiGj2D-36" value="Đúng" style="text;html=1;align=center;verticalAlign=middle;resizable=0;points=[];autosize=1;strokeColor=none;fillColor=none;rotation=270;" vertex="1" parent="1">
          <mxGeometry x="420" y="350" width="50" height="30" as="geometry" />
        </mxCell>
        <mxCell id="R6H1yCaC_U09KvBiGj2D-37" value="Đúng" style="text;html=1;align=center;verticalAlign=middle;resizable=0;points=[];autosize=1;strokeColor=none;fillColor=none;rotation=90;" vertex="1" parent="1">
          <mxGeometry x="620" y="450" width="50" height="30" as="geometry" />
        </mxCell>
        <mxCell id="R6H1yCaC_U09KvBiGj2D-38" value="Đúng" style="text;html=1;align=center;verticalAlign=middle;resizable=0;points=[];autosize=1;strokeColor=none;fillColor=none;rotation=90;" vertex="1" parent="1">
          <mxGeometry x="445" y="570" width="50" height="30" as="geometry" />
        </mxCell>
        <mxCell id="R6H1yCaC_U09KvBiGj2D-39" value="Sai" style="text;html=1;align=center;verticalAlign=middle;resizable=0;points=[];autosize=1;strokeColor=none;fillColor=none;rotation=90;" vertex="1" parent="1">
          <mxGeometry x="550" y="260" width="40" height="30" as="geometry" />
        </mxCell>
        <mxCell id="R6H1yCaC_U09KvBiGj2D-42" value="Sai" style="text;html=1;align=center;verticalAlign=middle;resizable=0;points=[];autosize=1;strokeColor=none;fillColor=none;rotation=0;" vertex="1" parent="1">
          <mxGeometry x="550" y="310" width="40" height="30" as="geometry" />
        </mxCell>
        <mxCell id="R6H1yCaC_U09KvBiGj2D-43" value="Sai" style="text;html=1;align=center;verticalAlign=middle;resizable=0;points=[];autosize=1;strokeColor=none;fillColor=none;rotation=90;" vertex="1" parent="1">
          <mxGeometry x="530" y="460" width="40" height="30" as="geometry" />
        </mxCell>
        <mxCell id="R6H1yCaC_U09KvBiGj2D-44" value="Sai" style="text;html=1;align=center;verticalAlign=middle;resizable=0;points=[];autosize=1;strokeColor=none;fillColor=none;rotation=90;" vertex="1" parent="1">
          <mxGeometry x="525" y="560" width="40" height="30" as="geometry" />
        </mxCell>
        <mxCell id="R6H1yCaC_U09KvBiGj2D-45" value="end" style="ellipse;whiteSpace=wrap;html=1;" vertex="1" parent="1">
          <mxGeometry x="240" y="600" width="120" height="80" as="geometry" />
        </mxCell>
        <mxCell id="R6H1yCaC_U09KvBiGj2D-46" value="end" style="ellipse;whiteSpace=wrap;html=1;" vertex="1" parent="1">
          <mxGeometry x="250" y="380" width="120" height="80" as="geometry" />
        </mxCell>
        <mxCell id="R6H1yCaC_U09KvBiGj2D-47" value="end" style="ellipse;whiteSpace=wrap;html=1;" vertex="1" parent="1">
          <mxGeometry x="250" y="280" width="120" height="80" as="geometry" />
        </mxCell>
        <mxCell id="R6H1yCaC_U09KvBiGj2D-48" value="end" style="ellipse;whiteSpace=wrap;html=1;" vertex="1" parent="1">
          <mxGeometry x="730" y="490" width="120" height="80" as="geometry" />
        </mxCell>
        <mxCell id="R6H1yCaC_U09KvBiGj2D-51" style="edgeStyle=orthogonalEdgeStyle;rounded=0;orthogonalLoop=1;jettySize=auto;html=1;exitX=0.5;exitY=1;exitDx=0;exitDy=0;entryX=0.592;entryY=0.025;entryDx=0;entryDy=0;entryPerimeter=0;" edge="1" parent="1" source="R6H1yCaC_U09KvBiGj2D-15" target="R6H1yCaC_U09KvBiGj2D-47">
          <mxGeometry relative="1" as="geometry" />
        </mxCell>
      </root>
    </mxGraphModel>
  </diagram>
</mxfile>
